<svg width="21" height="21" viewBox="0 0 21 21" fill="none" xmlns="http://www.w3.org/2000/svg">
<path fill-rule="evenodd" clip-rule="evenodd" d="M17.5 2.625H3.5C2.05455 2.625 0.88375 3.80393 0.88375 5.25L0.875 15.7493C0.875 17.1957 2.05425 18.375 3.5 18.375H17.5C18.9457 18.375 20.125 17.1957 20.125 15.75V5.25C20.125 3.80425 18.9457 2.625 17.5 2.625ZM4.79868 7.87513C4.38476 7.62574 4.25139 7.08801 4.50078 6.67409C4.75018 6.26017 5.28791 6.1268 5.70183 6.37619L10.4743 9.25176L15.454 6.25139C15.8686 6.00159 16.4072 6.13518 16.657 6.54976C16.9062 6.96341 16.7738 7.50072 16.361 7.75128L10.509 11.303L10.5034 11.3124L4.79868 7.87513Z" fill="#0E9E2F"/>
<mask id="mask0_21_6486" style="mask-type:luminance" maskUnits="userSpaceOnUse" x="0" y="2" width="21" height="17">
<path fill-rule="evenodd" clip-rule="evenodd" d="M17.5 2.625H3.5C2.05455 2.625 0.88375 3.80393 0.88375 5.25L0.875 15.7493C0.875 17.1957 2.05425 18.375 3.5 18.375H17.5C18.9457 18.375 20.125 17.1957 20.125 15.75V5.25C20.125 3.80425 18.9457 2.625 17.5 2.625ZM4.79868 7.87513C4.38476 7.62574 4.25139 7.08801 4.50078 6.67409C4.75018 6.26017 5.28791 6.1268 5.70183 6.37619L10.4743 9.25176L15.454 6.25139C15.8686 6.00159 16.4072 6.13518 16.657 6.54976C16.9062 6.96341 16.7738 7.50072 16.361 7.75128L10.509 11.303L10.5034 11.3124L4.79868 7.87513Z" fill="white"/>
</mask>
<g mask="url(#mask0_21_6486)">
<rect width="21" height="21" fill="#0E9E2F"/>
</g>
</svg>
