<svg width="21" height="21" viewBox="0 0 21 21" fill="none" xmlns="http://www.w3.org/2000/svg">
<path fill-rule="evenodd" clip-rule="evenodd" d="M5.7925 11.4412C7.0525 13.9175 9.0825 15.9388 11.5588 17.2075L13.4837 15.2825C13.72 15.0463 14.07 14.9675 14.3763 15.0725C15.3562 15.3962 16.415 15.5712 17.5 15.5712C17.9812 15.5712 18.375 15.965 18.375 16.4462V19.5C18.375 19.9812 17.9812 20.375 17.5 20.375C9.28375 20.375 2.625 13.7163 2.625 5.5C2.625 5.01875 3.01875 4.625 3.5 4.625H6.5625C7.04375 4.625 7.4375 5.01875 7.4375 5.5C7.4375 6.59375 7.6125 7.64375 7.93625 8.62375C8.0325 8.93 7.9625 9.27125 7.7175 9.51625L5.7925 11.4412Z" fill="#0E9E2F"/>
<mask id="mask0_21_6479" style="mask-type:luminance" maskUnits="userSpaceOnUse" x="2" y="4" width="17" height="17">
<path fill-rule="evenodd" clip-rule="evenodd" d="M5.7925 11.4412C7.0525 13.9175 9.0825 15.9388 11.5588 17.2075L13.4837 15.2825C13.72 15.0463 14.07 14.9675 14.3763 15.0725C15.3562 15.3962 16.415 15.5712 17.5 15.5712C17.9812 15.5712 18.375 15.965 18.375 16.4462V19.5C18.375 19.9812 17.9812 20.375 17.5 20.375C9.28375 20.375 2.625 13.7163 2.625 5.5C2.625 5.01875 3.01875 4.625 3.5 4.625H6.5625C7.04375 4.625 7.4375 5.01875 7.4375 5.5C7.4375 6.59375 7.6125 7.64375 7.93625 8.62375C8.0325 8.93 7.9625 9.27125 7.7175 9.51625L5.7925 11.4412Z" fill="white"/>
</mask>
<g mask="url(#mask0_21_6479)">
<rect y="2" width="21" height="21" fill="#0E9E2F"/>
</g>
</svg>
