<svg width="65" height="65" viewBox="0 0 65 65" fill="none" xmlns="http://www.w3.org/2000/svg">
<path fill-rule="evenodd" clip-rule="evenodd" d="M32.5 65C14.5508 65 0 50.4493 0 32.5C0 14.5508 14.5508 0 32.5 0C50.4493 0 65 14.5508 65 32.5C65 50.4493 50.4493 65 32.5 65ZM33.5713 50.5816C44.2264 50.5772 52.8924 41.9091 52.8967 31.2562C52.8987 26.0926 50.8904 21.2372 47.2418 17.5844C43.5931 13.9315 38.7409 11.9189 33.5711 11.9167C22.919 11.9167 14.2496 20.5856 14.2454 31.241C14.2439 34.647 15.1338 37.9716 16.825 40.9024L14.0833 50.9167L24.3281 48.2293C27.1508 49.7689 30.3289 50.5804 33.5633 50.5816H33.5713Z" fill="#0E9E2F"/>
<path fill-rule="evenodd" clip-rule="evenodd" d="M24.8033 44.7306L18.7239 46.3253L20.3466 40.398L19.9647 39.7902C18.3568 37.2329 17.5075 34.277 17.5088 31.2419C17.5123 22.3857 24.718 15.1807 33.5781 15.1807C37.8684 15.1822 41.9014 16.855 44.934 19.8912C47.9667 22.9274 49.6358 26.963 49.6342 31.255C49.6306 40.1118 42.425 47.3176 33.5718 47.3176H33.5653C30.683 47.3165 27.856 46.5422 25.3898 45.0787L24.8033 44.7306ZM43.3078 35.8516C43.1872 35.6502 42.8653 35.5294 42.3824 35.2876C41.8995 35.0459 39.5255 33.8778 39.0828 33.7165C38.6402 33.5555 38.3182 33.475 37.9963 33.9582C37.6745 34.4416 36.7491 35.5294 36.4674 35.8516C36.1857 36.1738 35.904 36.2143 35.4213 35.9725C34.9384 35.7308 33.3825 35.2209 31.5381 33.5757C30.1025 32.2953 29.1334 30.7141 28.8518 30.2306C28.5701 29.7472 28.8217 29.486 29.0635 29.2452C29.2807 29.0287 29.5464 28.681 29.7878 28.3992C30.0292 28.1173 30.1097 27.9157 30.2707 27.5937C30.4316 27.2713 30.3512 26.9894 30.2304 26.7477C30.1097 26.5059 29.144 24.1291 28.7416 23.1622C28.3496 22.2206 27.9515 22.3482 27.6552 22.3333C27.3738 22.3192 27.0515 22.3162 26.7297 22.3162C26.4078 22.3162 25.8846 22.4371 25.442 22.9205C24.9994 23.4039 23.752 24.5722 23.752 26.9488C23.752 29.3257 25.4822 31.6218 25.7237 31.944C25.9651 32.2665 29.1286 37.1437 33.9727 39.2353C35.1247 39.7329 36.0241 40.03 36.7255 40.2525C37.8822 40.6201 38.935 40.5683 39.7668 40.4439C40.6947 40.3053 42.6238 39.2758 43.0263 38.1479C43.4285 37.0198 43.4285 36.053 43.3078 35.8516Z" fill="#0E9E2F"/>
</svg>
